# Blender v2.79 (sub 0) OBJ File: ''
# www.blender.org
o Cube_Cube.001
v -27.500000 -2.000000 17.483801
v -27.500000 0.000000 17.483801
v -27.500000 -2.000000 -32.516197
v -27.500000 0.000000 -32.516197
v 27.500000 -2.000000 17.483801
v 27.500000 0.000000 17.483801
v 27.500000 -2.000000 -32.516197
v 27.500000 0.000000 -32.516197
v 27.250101 -2.000000 -32.516197
v -27.250101 -2.000000 -32.516197
v -27.250101 0.000000 -32.516197
v 27.250101 0.000000 -32.516197
v -27.250101 -2.000000 17.483801
v 27.250101 -2.000000 17.483801
v 27.250101 0.000000 17.483801
v -27.250101 0.000000 17.483801
v -27.499998 -2.000000 -31.356070
v -27.499998 -2.000000 16.323671
v -27.499998 0.000000 16.323671
v -27.499998 0.000000 -31.356070
v 27.499998 -2.000000 16.323671
v 27.499998 -2.000000 -31.356070
v 27.499998 0.000000 -31.356070
v 27.499998 0.000000 16.323671
v 27.250101 0.000000 -31.356070
v 27.250101 0.000000 16.323671
v -27.250101 0.000000 -31.356070
v -27.250101 0.000000 16.323671
v -27.250101 -2.000000 -31.356070
v -27.250101 -2.000000 16.323671
v 27.250101 -2.000000 -31.356070
v 27.250101 -2.000000 16.323671
v -27.499998 23.529819 -31.356070
v -27.500000 23.529819 -32.516197
v 27.250101 23.529819 -32.516197
v 27.500000 23.529819 -32.516197
v -27.250101 23.529819 -32.516197
v -27.499998 23.529819 16.323671
v 27.499998 23.529819 -31.356070
v 27.499998 23.529819 16.323671
v 27.250101 23.529819 -31.356070
v 27.250101 23.529819 16.323671
v -27.250101 23.529819 -31.356070
v -27.250101 23.529819 16.323671
vt 0.497695 0.592503
vt 0.495724 0.507549
vt 0.497696 0.507549
vt 0.502705 0.550897
vt 0.501948 0.507556
vt 0.502705 0.507549
vt 0.588525 0.507811
vt 0.586554 0.422858
vt 0.588525 0.422858
vt 0.501440 0.550897
vt 0.500684 0.507556
vt 0.501440 0.507549
vt 0.510194 0.512982
vt 0.508223 0.512596
vt 0.510194 0.512596
vt 0.507714 0.513877
vt 0.505743 0.513491
vt 0.507714 0.513491
vt 0.510194 0.513491
vt 0.508223 0.513877
vt 0.508223 0.513491
vt 0.831236 0.971635
vt 0.968110 0.968430
vt 0.968110 0.971635
vt 0.510194 0.514385
vt 0.508223 0.514771
vt 0.508223 0.514385
vt 0.584865 0.590532
vt 0.500684 0.592503
vt 0.500684 0.590532
vt 0.505235 0.550897
vt 0.504478 0.507556
vt 0.505235 0.507549
vt 0.901602 0.854589
vt 0.087219 0.032738
vt 0.901602 0.032738
vt 0.503970 0.550897
vt 0.503213 0.507556
vt 0.503970 0.507549
vt 0.580679 0.000254
vt 0.495724 0.084437
vt 0.495724 0.000254
vt 0.584865 0.588052
vt 0.500684 0.590023
vt 0.500684 0.588052
vt 0.117871 0.030218
vt 0.954590 0.899681
vt 0.117871 0.899681
vt 0.512673 0.512982
vt 0.510702 0.512596
vt 0.512673 0.512596
vt 0.548076 0.512088
vt 0.505753 0.511335
vt 0.548085 0.511349
vt 0.586279 0.085037
vt 0.580416 0.420975
vt 0.580416 0.084946
vt 0.061531 0.897632
vt 0.927289 0.064479
vt 0.927289 0.897632
vt 0.968002 0.691843
vt 0.963784 0.933553
vt 0.963784 0.691771
vt 0.495215 0.000254
vt 0.414203 0.999743
vt 0.414203 0.000254
vt 0.988831 0.142496
vt 0.979298 0.688709
vt 0.979298 0.142348
vt 0.978092 0.691843
vt 0.973874 0.933553
vt 0.973874 0.691771
vt 0.507714 0.514385
vt 0.505743 0.514771
vt 0.505743 0.514385
vt 0.548076 0.510826
vt 0.505753 0.510073
vt 0.548085 0.510087
vt 0.500175 0.592503
vt 0.498204 0.507549
vt 0.500175 0.507549
vt 0.896124 0.912049
vt 0.077124 0.053193
vt 0.896124 0.053193
vt 0.591005 0.507811
vt 0.589034 0.422858
vt 0.591005 0.422858
vt 0.943419 0.956292
vt 0.067034 0.037259
vt 0.943419 0.037259
vt 0.500684 0.587544
vt 0.584865 0.585572
vt 0.584865 0.587544
vt 0.512673 0.513877
vt 0.510702 0.513491
vt 0.512673 0.513491
vt 0.548076 0.508303
vt 0.505753 0.507549
vt 0.548085 0.507564
vt 0.507714 0.512596
vt 0.505743 0.512982
vt 0.505743 0.512596
vt 0.548076 0.509565
vt 0.505753 0.508811
vt 0.548085 0.508826
vt 0.169129 0.000254
vt 0.084946 0.999746
vt 0.084946 0.000254
vt 0.582943 0.422902
vt 0.580348 0.571561
vt 0.580348 0.422858
vt 0.413694 0.000254
vt 0.332681 0.999743
vt 0.332681 0.000254
vt 0.332172 0.000254
vt 0.251159 0.999743
vt 0.251159 0.000254
vt 0.084438 0.000254
vt 0.000254 0.999746
vt 0.000254 0.000254
vt 0.250650 0.000254
vt 0.169638 0.999743
vt 0.169638 0.000254
vt 0.579840 0.170454
vt 0.577245 0.319113
vt 0.577245 0.170409
vt 0.495724 0.592503
vt 0.501948 0.550903
vt 0.586554 0.507811
vt 0.500684 0.550903
vt 0.508223 0.512982
vt 0.505743 0.513877
vt 0.510194 0.513877
vt 0.831236 0.968430
vt 0.510194 0.514771
vt 0.584865 0.592503
vt 0.504478 0.550903
vt 0.087219 0.854589
vt 0.503213 0.550903
vt 0.580679 0.084437
vt 0.584865 0.590023
vt 0.954590 0.030218
vt 0.510702 0.512982
vt 0.505743 0.512073
vt 0.586279 0.421065
vt 0.061531 0.064479
vt 0.968002 0.933624
vt 0.495216 0.999743
vt 0.988831 0.688857
vt 0.978092 0.933624
vt 0.507714 0.514771
vt 0.505743 0.510812
vt 0.498204 0.592503
vt 0.077124 0.912049
vt 0.589034 0.507811
vt 0.067034 0.956293
vt 0.500684 0.585573
vt 0.510702 0.513877
vt 0.505743 0.508288
vt 0.507714 0.512982
vt 0.505743 0.509550
vt 0.169129 0.999746
vt 0.582943 0.571605
vt 0.413694 0.999743
vt 0.332173 0.999743
vt 0.084437 0.999746
vt 0.250651 0.999743
vt 0.579840 0.319157
vn -1.0000 0.0000 0.0000
vn 0.0000 0.0000 -1.0000
vn 1.0000 0.0000 -0.0000
vn 0.0000 0.0000 1.0000
vn 0.0000 -1.0000 0.0000
vn 0.0000 1.0000 0.0000
s off
f 20/1/1 3/2/1 17/3/1
f 12/4/2 7/5/2 9/6/2
f 24/7/3 5/8/3 21/9/3
f 16/10/4 1/11/4 13/12/4
f 21/13/5 14/14/5 32/15/5
f 19/16/6 16/17/6 28/18/6
f 24/19/6 15/20/6 6/21/6
f 28/22/6 15/23/6 26/24/6
f 18/25/5 13/26/5 1/27/5
f 32/28/5 13/29/5 30/30/5
f 6/31/4 14/32/4 5/33/4
f 15/34/4 13/35/4 14/36/4
f 4/37/2 10/38/2 3/39/2
f 11/40/2 9/41/2 10/42/2
f 9/43/5 29/44/5 10/45/5
f 31/46/5 30/47/5 29/48/5
f 10/49/5 17/50/5 3/51/5
f 29/52/5 18/53/5 17/54/5
f 8/55/3 39/56/3 23/57/3
f 27/58/6 26/59/6 25/60/6
f 24/61/4 42/62/4 26/63/4
f 26/64/1 41/65/1 25/66/1
f 20/67/1 34/68/1 4/69/1
f 28/70/4 38/71/4 19/72/4
f 9/73/5 22/74/5 31/75/5
f 22/76/5 32/77/5 31/78/5
f 8/79/3 22/80/3 7/81/3
f 23/82/3 21/83/3 22/84/3
f 2/85/1 18/86/1 1/87/1
f 19/88/1 17/89/1 18/90/1
f 37/91/6 41/92/6 35/93/6
f 35/94/6 39/95/6 36/96/6
f 41/97/6 40/98/6 39/99/6
f 37/100/6 33/101/6 43/102/6
f 33/103/6 44/104/6 43/105/6
f 25/106/4 43/107/4 27/108/4
f 4/109/2 37/110/2 11/111/2
f 19/112/1 33/113/1 20/114/1
f 23/115/3 40/116/3 24/117/3
f 11/118/2 35/119/2 12/120/2
f 27/121/3 44/122/3 28/123/3
f 12/124/2 36/125/2 8/126/2
f 20/1/1 4/127/1 3/2/1
f 12/4/2 8/128/2 7/5/2
f 24/7/3 6/129/3 5/8/3
f 16/10/4 2/130/4 1/11/4
f 21/13/5 5/131/5 14/14/5
f 19/16/6 2/132/6 16/17/6
f 24/19/6 26/133/6 15/20/6
f 28/22/6 16/134/6 15/23/6
f 18/25/5 30/135/5 13/26/5
f 32/28/5 14/136/5 13/29/5
f 6/31/4 15/137/4 14/32/4
f 15/34/4 16/138/4 13/35/4
f 4/37/2 11/139/2 10/38/2
f 11/40/2 12/140/2 9/41/2
f 9/43/5 31/141/5 29/44/5
f 31/46/5 32/142/5 30/47/5
f 10/49/5 29/143/5 17/50/5
f 29/52/5 30/144/5 18/53/5
f 8/55/3 36/145/3 39/56/3
f 27/58/6 28/146/6 26/59/6
f 24/61/4 40/147/4 42/62/4
f 26/64/1 42/148/1 41/65/1
f 20/67/1 33/149/1 34/68/1
f 28/70/4 44/150/4 38/71/4
f 9/73/5 7/151/5 22/74/5
f 22/76/5 21/152/5 32/77/5
f 8/79/3 23/153/3 22/80/3
f 23/82/3 24/154/3 21/83/3
f 2/85/1 19/155/1 18/86/1
f 19/88/1 20/156/1 17/89/1
f 37/91/6 43/157/6 41/92/6
f 35/94/6 41/158/6 39/95/6
f 41/97/6 42/159/6 40/98/6
f 37/100/6 34/160/6 33/101/6
f 33/103/6 38/161/6 44/104/6
f 25/106/4 41/162/4 43/107/4
f 4/109/2 34/163/2 37/110/2
f 19/112/1 38/164/1 33/113/1
f 23/115/3 39/165/3 40/116/3
f 11/118/2 37/166/2 35/119/2
f 27/121/3 43/167/3 44/122/3
f 12/124/2 35/168/2 36/125/2
