# Blender v2.79 (sub 0) OBJ File: ''
# www.blender.org
v 5.465231 13.411233 -23.653311
v 7.169331 17.798536 -23.653311
v 7.169331 17.798536 -18.475813
v 5.465232 13.411233 -18.475813
v -4.049098 13.411234 -24.554203
v -4.049098 17.798538 -25.642895
v 4.055089 17.798536 -25.642895
v 4.055088 13.411233 -24.554203
v -7.163338 17.798538 -23.653311
v -7.703860 17.788174 -23.848566
v -4.354728 17.788174 -25.988216
v 4.055089 13.411233 -17.574921
v 4.055089 17.798536 -16.486229
v -4.049097 17.798538 -16.486229
v -4.049098 13.411234 -17.574919
v -5.459240 13.411235 -18.475813
v -7.163338 17.798538 -18.475813
v -5.459240 13.411235 -23.653311
v 4.739359 17.994635 -15.713095
v 8.379495 17.994635 -18.038656
v 8.379496 19.454596 -18.038656
v 4.739359 19.454596 -15.713096
v -4.733366 17.994637 -26.416029
v 4.739359 17.994635 -26.416029
v 4.360721 18.083715 -25.988216
v -4.354728 18.083717 -25.988216
v 4.360721 17.788172 -25.988216
v 8.379494 17.994635 -24.090467
v 7.709854 18.083715 -18.280558
v 7.709853 18.083715 -23.848568
v 7.709853 17.788172 -23.848568
v 7.709853 17.788172 -18.280558
v -4.733366 17.994637 -15.713095
v -4.354727 18.083717 -16.140907
v 4.360721 18.083715 -16.140907
v 4.360721 17.788172 -16.140907
v -4.354727 17.788174 -16.140907
v -7.703860 17.788174 -18.280556
v -7.703860 18.083717 -18.280556
v -7.703860 18.083717 -23.848566
v -8.373499 17.994637 -18.038656
v -8.373503 17.994637 -24.090466
v -4.733366 19.454597 -26.416029
v 4.739359 19.454596 -26.416029
v -4.733366 19.454597 -15.713095
v -8.373502 19.454597 -18.038654
v 8.379496 19.454596 -24.090467
v 8.379496 18.781601 -20.343437
v 8.379496 18.495781 -20.343437
v 10.256733 18.713612 -19.747656
v 10.256733 19.377552 -19.747656
v 4.739359 19.454596 -18.038658
v 3.744490 13.182981 -17.842407
v -3.738498 13.182982 -17.842405
v -3.738498 12.974111 -17.842405
v 3.744490 12.974109 -17.842407
v 5.046543 13.182981 -23.454880
v 5.046543 13.182981 -18.674246
v 5.046543 12.974109 -18.674246
v 5.046543 12.974109 -23.454880
v 3.744489 13.182981 -24.286716
v 3.744489 12.974109 -24.286716
v -8.373501 19.454597 -24.090467
v -4.733366 19.454597 -24.090466
v -6.362589 19.454597 -23.068962
v -6.744278 19.454597 -23.068962
v -8.467331 22.529041 -21.847311
v -8.318274 22.529041 -21.847311
v 1.613415 19.454596 -25.526964
v -1.607423 19.454597 -25.526964
v -0.990469 22.529039 -27.310066
v 0.996462 22.529039 -27.310066
v -4.733366 19.454597 -18.038656
v 4.739359 19.454596 -24.090467
v -6.362589 19.454597 -19.060160
v -6.744278 19.454597 -19.060160
v -8.318274 22.529041 -20.281813
v -8.467331 22.529041 -20.281813
v 6.368583 19.454596 -19.060162
v 6.750273 19.454596 -19.060162
v 8.168124 22.529037 -20.281813
v 8.019068 22.529037 -20.281813
v 8.019068 22.529037 -21.847311
v 8.168124 22.529037 -21.847311
v 6.750273 19.454596 -23.068964
v 6.368583 19.454596 -23.068964
v -1.607422 19.454597 -24.979532
v 1.613415 19.454596 -24.979532
v -0.990469 22.529039 -26.972357
v 0.996462 22.529039 -26.972357
v -1.607422 19.454597 -16.602160
v 1.613415 19.454596 -16.602161
v 0.996462 22.529039 -14.819059
v -0.990468 22.529039 -14.819059
v 1.613415 19.454596 -17.149593
v -1.607421 19.454597 -17.149591
v 0.996462 22.529039 -15.156768
v -0.990468 22.529039 -15.156768
v 8.379495 18.495781 -21.785686
v 8.379496 18.781601 -21.785686
v 10.256733 19.377552 -22.381470
v 10.256733 18.713612 -22.381470
v 10.546949 18.983326 -22.009750
v 10.546951 18.983326 -20.119375
v 10.546951 19.233646 -22.009750
v 10.546951 19.233646 -20.119375
v -8.373501 18.781603 -21.785686
v -8.373501 18.495783 -21.785686
v -10.250739 18.713615 -22.381470
v -10.250739 19.377556 -22.381470
v -8.373499 18.495783 -20.343439
v -8.373501 18.781603 -20.343439
v -10.250739 19.377556 -19.747654
v -10.250738 18.713615 -19.747654
v -10.540956 18.983330 -20.119373
v -10.540958 18.983330 -22.009748
v -10.540958 19.233650 -20.119373
v -10.540958 19.233650 -22.009748
v -5.040551 12.974111 -18.674244
v -5.040552 12.974111 -23.454878
v -3.738499 12.974111 -24.286716
v -5.040552 13.182982 -23.454878
v -3.738499 13.182982 -24.286716
v -5.040551 13.182982 -18.674244
vt 0.395403 0.662026
vt 0.211682 0.500430
vt 0.343872 0.498481
vt 0.504533 0.208027
vt 0.369032 0.461616
vt 0.364346 0.272421
vt 0.397864 0.078938
vt 0.519030 0.194637
vt 0.045331 0.530008
vt 0.180833 0.276419
vt 0.185519 0.465614
vt 0.154462 0.076009
vt 0.338184 0.237606
vt 0.205993 0.239555
vt 0.549718 0.564614
vt 0.531983 0.188792
vt 0.549718 0.171989
vt 0.506090 0.530651
vt 0.519595 0.543650
vt 0.127209 0.728809
vt 0.411250 0.704213
vt 0.421563 0.737889
vt 0.143654 0.683477
vt 0.152001 0.659098
vt 0.000147 0.173421
vt 0.017881 0.549244
vt 0.000146 0.566046
vt 0.030270 0.194385
vt 0.043775 0.207385
vt 0.532457 0.547994
vt 0.030834 0.543399
vt 0.017408 0.190042
vt 0.146252 0.047520
vt 0.412431 0.039500
vt 0.406211 0.054558
vt 0.403613 0.690515
vt 0.137434 0.698535
vt 0.138615 0.033822
vt 0.422656 0.009227
vt 0.128302 0.000146
vt 0.075681 0.787147
vt 0.042033 0.780087
vt 0.000146 0.738182
vt 0.905886 0.698831
vt 0.896501 0.531676
vt 0.999854 0.522108
vt 0.188753 0.284008
vt 0.198359 0.455565
vt 0.193408 0.457670
vt 0.217306 0.488517
vt 0.334895 0.480803
vt 0.337768 0.485647
vt 0.356169 0.452586
vt 0.361112 0.454028
vt 0.593542 0.157153
vt 0.738434 0.007472
vt 0.695916 0.168301
vt 0.779502 0.057845
vt 0.808392 0.030844
vt 0.762274 0.089611
vt 0.619453 0.306865
vt 0.634543 0.355034
vt 0.612197 0.381588
vt 0.999854 0.180670
vt 0.899546 0.172404
vt 0.888183 0.008396
vt 0.550011 0.529928
vt 0.682781 0.541559
vt 0.688763 0.804969
vt 0.842294 0.060396
vt 0.854071 0.090667
vt 0.827196 0.000146
vt 0.828569 0.011062
vt 0.812812 0.039985
vt 0.839792 0.649167
vt 0.796634 0.642966
vt 0.840889 0.615893
vt 0.778845 0.650186
vt 0.781149 0.659595
vt 0.747306 0.678796
vt 0.743861 0.629728
vt 0.793844 0.631887
vt 0.647355 0.307898
vt 0.643232 0.382109
vt 0.627157 0.354247
vt 0.628922 0.337586
vt 0.621590 0.335988
vt 0.958669 0.385649
vt 0.942734 0.342810
vt 0.959835 0.316167
vt 0.932999 0.388332
vt 0.933277 0.315208
vt 0.949955 0.342834
vt 0.949385 0.358503
vt 0.956456 0.359742
vt 0.131438 0.775841
vt 0.210156 0.806743
vt 0.140440 0.760543
vt 0.170680 0.763517
vt 0.032853 0.785162
vt 0.192366 0.785162
vt 0.021315 0.752549
vt 0.168746 0.757932
vt 0.084634 0.774516
vt 0.355911 0.738182
vt 0.392056 0.756218
vt 0.437485 0.786651
vt 0.302143 0.761166
vt 0.260753 0.756326
vt 0.305408 0.774732
vt 0.210449 0.786228
vt 0.251031 0.747442
vt 0.399569 0.748193
vt 0.238152 0.777368
vt 0.350185 0.753817
vt 0.330345 0.255104
vt 0.219520 0.482931
vt 0.214970 0.257233
vt 0.193696 0.285450
vt 0.356457 0.280365
vt 0.332559 0.249518
vt 0.351506 0.282470
vt 0.212097 0.252388
vt 0.410891 0.777367
vn 0.9322 -0.3621 -0.0000
vn 0.0000 -0.2408 -0.9706
vn 0.0122 -0.9997 0.0192
vn -0.0000 -0.2408 0.9706
vn -0.9322 -0.3621 0.0000
vn 0.5270 -0.2047 0.8249
vn -0.0000 -0.9790 0.2039
vn -0.0000 -0.9996 0.0300
vn -0.1319 -0.9913 0.0000
vn -0.0192 -0.9998 0.0000
vn -0.0000 -0.9790 -0.2039
vn -0.0000 -0.9995 -0.0300
vn -0.0839 -0.9878 0.1314
vn 0.5384 0.0000 0.8427
vn 0.0000 0.0000 -1.0000
vn 0.0000 0.0000 1.0000
vn -1.0000 0.0000 0.0000
vn 0.5384 0.0000 -0.8427
vn 1.0000 0.0000 0.0000
vn -0.5384 0.0000 -0.8427
vn -0.5384 0.0000 0.8427
vn 0.0192 -0.9998 0.0000
vn 0.1319 -0.9913 0.0000
vn -0.0839 -0.9878 -0.1314
vn -0.0122 -0.9997 -0.0192
vn 0.0839 -0.9878 -0.1314
vn 0.0839 -0.9878 0.1314
vn 0.0122 -0.9997 -0.0192
vn -0.0122 -0.9997 0.0192
vn -0.3025 0.0000 0.9531
vn 0.0000 1.0000 0.0000
vn 0.5270 -0.2047 -0.8249
vn -0.5270 -0.2047 -0.8249
vn -0.5270 -0.2047 0.8249
vn 0.0000 0.3693 -0.9293
vn 0.0000 -0.5017 -0.8650
vn 0.0000 0.3693 0.9293
vn 0.8438 0.5367 0.0000
vn -0.8723 -0.4889 0.0000
vn -0.8811 0.4730 0.0000
vn 0.9081 -0.4188 0.0000
vn 0.9805 0.1967 -0.0000
vn -0.9805 0.1967 0.0000
vn 0.0000 0.5439 0.8391
vn 0.0000 -0.5017 0.8650
vn -0.9805 0.1968 -0.0000
vn -0.0000 0.5439 -0.8391
vn -0.3025 0.0000 -0.9531
vn -0.3026 0.9531 0.0000
vn 0.6808 -0.7325 -0.0000
vn 0.7882 0.0000 -0.6154
vn 0.7882 0.0000 0.6154
vn 0.4442 0.8959 0.0000
vn 0.1153 -0.9933 0.0000
vn 0.3025 0.0000 -0.9531
vn 0.3025 0.0000 0.9531
vn 0.3026 0.9531 0.0000
vn -0.6808 -0.7325 0.0000
vn -0.7882 0.0000 0.6154
vn -0.7882 0.0000 -0.6154
vn -0.4442 0.8959 0.0000
vn -0.1153 -0.9933 -0.0000
vn -0.0000 -1.0000 -0.0000
vn -0.2706 -0.8645 0.4235
vn -0.4787 -0.8780 -0.0000
vn 0.0000 -0.7607 -0.6491
vn -0.2706 -0.8645 -0.4235
vn 0.2706 -0.8645 0.4235
vn 0.2706 -0.8645 -0.4235
vn 0.4787 -0.8780 0.0000
vn 0.0000 -0.7607 0.6491
vn -0.0000 -0.9995 0.0300
vn -0.0000 -0.9996 -0.0300
vn 0.9805 0.1968 0.0000
s off
f 2/1/1 4/2/1 1/3/1
f 6/4/2 8/5/2 5/6/2
f 9/7/3 11/8/3 6/4/3
f 13/9/4 15/10/4 12/11/4
f 17/12/5 18/13/5 16/14/5
f 4/2/6 13/9/6 12/11/6
f 24/15/7 26/16/7 23/17/7
f 7/18/8 11/8/8 27/19/8
f 20/20/9 30/21/9 28/22/9
f 2/1/10 32/23/10 3/24/10
f 33/25/11 35/26/11 19/27/11
f 13/9/12 37/28/12 14/29/12
f 24/15/13 30/21/13 25/30/13
f 32/23/14 35/26/14 36/31/14
f 11/8/15 25/30/15 27/19/15
f 36/31/16 34/32/16 37/28/16
f 38/33/17 40/34/17 10/35/17
f 27/19/18 30/21/18 31/36/18
f 31/36/19 29/37/19 32/23/19
f 10/35/20 26/16/20 11/8/20
f 37/28/21 39/38/21 38/33/21
f 17/12/22 10/35/22 9/7/22
f 42/39/23 39/38/23 41/40/23
f 19/27/24 29/37/24 20/20/24
f 3/24/25 36/31/25 13/9/25
f 33/25/26 39/38/26 34/32/26
f 23/17/27 40/34/27 42/39/27
f 17/12/28 37/28/28 38/33/28
f 2/1/29 27/19/29 31/36/29
f 48/41/30 50/42/30 51/43/30
f 21/44/31 52/45/31 22/46/31
f 1/3/32 7/18/32 2/1/32
f 6/4/33 18/13/33 9/7/33
f 16/14/34 14/29/34 17/12/34
f 54/47/16 56/48/16 53/49/16
f 58/50/19 60/51/19 57/52/19
f 57/52/18 62/53/18 61/54/18
f 43/55/31 63/56/31 64/57/31
f 66/58/35 68/59/35 65/60/35
f 70/61/36 72/62/36 69/63/36
f 45/64/31 73/65/31 46/66/31
f 52/45/31 64/57/31 73/65/31
f 44/67/31 74/68/31 47/69/31
f 76/70/31 73/65/31 75/71/31
f 66/58/31 46/66/31 76/70/31
f 65/60/31 63/56/31 66/58/31
f 75/71/31 64/57/31 65/60/31
f 68/59/31 78/72/31 77/73/31
f 76/70/37 77/73/37 78/72/37
f 65/60/38 77/73/38 75/71/38
f 66/58/39 78/72/39 67/74/39
f 80/75/37 82/76/37 79/77/37
f 82/76/31 84/78/31 83/79/31
f 85/80/35 83/79/35 84/78/35
f 79/77/40 83/79/40 86/81/40
f 85/80/41 81/82/41 80/75/41
f 79/77/31 21/44/31 80/75/31
f 86/81/31 52/45/31 79/77/31
f 86/81/31 47/69/31 74/68/31
f 80/75/31 47/69/31 85/80/31
f 70/61/31 44/67/31 43/55/31
f 70/61/31 64/57/31 87/83/31
f 87/83/31 74/68/31 88/84/31
f 69/63/31 74/68/31 44/67/31
f 90/85/31 71/86/31 89/87/31
f 69/63/42 90/85/42 88/84/42
f 70/61/43 89/87/43 71/86/43
f 87/83/44 90/85/44 89/87/44
f 92/88/45 94/89/45 91/90/45
f 91/90/31 22/46/31 92/88/31
f 92/88/31 52/45/31 95/91/31
f 95/91/31 73/65/31 96/92/31
f 91/90/31 73/65/31 45/64/31
f 98/93/31 93/94/31 97/95/31
f 91/90/46 98/93/46 96/92/46
f 92/88/42 97/95/42 93/94/42
f 96/92/47 97/95/47 95/91/47
f 100/96/48 102/97/48 99/98/48
f 100/96/49 51/43/49 101/99/49
f 104/100/50 102/97/50 103/101/50
f 101/99/51 103/101/51 102/97/51
f 104/100/52 51/43/52 50/42/52
f 101/99/53 106/102/53 105/103/53
f 49/104/54 102/97/54 50/42/54
f 107/105/55 109/106/55 110/107/55
f 112/108/56 114/109/56 111/110/56
f 112/108/57 110/107/57 113/111/57
f 115/112/58 109/106/58 114/109/58
f 113/111/59 115/112/59 114/109/59
f 116/113/60 110/107/60 109/106/60
f 110/107/61 117/114/61 113/111/61
f 108/115/62 114/109/62 109/106/62
f 120/116/63 59/117/63 119/118/63
f 59/117/63 55/119/63 119/118/63
f 120/116/63 62/53/63 60/51/63
f 53/49/14 59/117/14 58/50/14
f 123/120/20 120/116/20 122/121/20
f 61/54/15 121/122/15 123/120/15
f 122/121/17 119/118/17 124/123/17
f 124/123/21 55/119/21 54/47/21
f 15/10/64 124/123/64 54/47/64
f 18/13/65 124/123/65 16/14/65
f 8/5/66 123/120/66 5/6/66
f 5/6/67 122/121/67 18/13/67
f 12/11/68 58/50/68 4/2/68
f 8/5/69 57/52/69 61/54/69
f 4/2/70 57/52/70 1/3/70
f 15/10/71 53/49/71 12/11/71
f 2/1/1 3/24/1 4/2/1
f 6/4/2 7/18/2 8/5/2
f 9/7/3 10/35/3 11/8/3
f 13/9/4 14/29/4 15/10/4
f 17/12/5 9/7/5 18/13/5
f 4/2/6 3/24/6 13/9/6
f 24/15/7 25/30/7 26/16/7
f 7/18/72 6/4/72 11/8/72
f 20/20/9 29/37/9 30/21/9
f 2/1/10 31/36/10 32/23/10
f 33/25/11 34/32/11 35/26/11
f 13/9/73 36/31/73 37/28/73
f 24/15/13 28/22/13 30/21/13
f 32/23/14 29/37/14 35/26/14
f 11/8/15 26/16/15 25/30/15
f 36/31/16 35/26/16 34/32/16
f 38/33/17 39/38/17 40/34/17
f 27/19/18 25/30/18 30/21/18
f 31/36/19 30/21/19 29/37/19
f 10/35/20 40/34/20 26/16/20
f 37/28/21 34/32/21 39/38/21
f 17/12/22 38/33/22 10/35/22
f 42/39/23 40/34/23 39/38/23
f 19/27/24 35/26/24 29/37/24
f 3/24/25 32/23/25 36/31/25
f 33/25/26 41/40/26 39/38/26
f 23/17/27 26/16/27 40/34/27
f 17/12/28 14/29/28 37/28/28
f 2/1/29 7/18/29 27/19/29
f 48/41/30 49/104/30 50/42/30
f 1/3/32 8/5/32 7/18/32
f 6/4/33 5/6/33 18/13/33
f 16/14/34 15/10/34 14/29/34
f 54/47/16 55/119/16 56/48/16
f 58/50/19 59/117/19 60/51/19
f 57/52/18 60/51/18 62/53/18
f 66/58/35 67/74/35 68/59/35
f 70/61/36 71/86/36 72/62/36
f 52/45/31 74/68/31 64/57/31
f 76/70/31 46/66/31 73/65/31
f 66/58/31 63/56/31 46/66/31
f 65/60/31 64/57/31 63/56/31
f 75/71/31 73/65/31 64/57/31
f 68/59/31 67/74/31 78/72/31
f 76/70/37 75/71/37 77/73/37
f 65/60/38 68/59/38 77/73/38
f 66/58/39 76/70/39 78/72/39
f 80/75/37 81/82/37 82/76/37
f 82/76/31 81/82/31 84/78/31
f 85/80/35 86/81/35 83/79/35
f 79/77/40 82/76/40 83/79/40
f 85/80/41 84/78/41 81/82/41
f 79/77/31 52/45/31 21/44/31
f 86/81/31 74/68/31 52/45/31
f 86/81/31 85/80/31 47/69/31
f 80/75/31 21/44/31 47/69/31
f 70/61/31 69/63/31 44/67/31
f 70/61/31 43/55/31 64/57/31
f 87/83/31 64/57/31 74/68/31
f 69/63/31 88/84/31 74/68/31
f 90/85/31 72/62/31 71/86/31
f 69/63/74 72/62/74 90/85/74
f 70/61/46 87/83/46 89/87/46
f 87/83/44 88/84/44 90/85/44
f 92/88/45 93/94/45 94/89/45
f 91/90/31 45/64/31 22/46/31
f 92/88/31 22/46/31 52/45/31
f 95/91/31 52/45/31 73/65/31
f 91/90/31 96/92/31 73/65/31
f 98/93/31 94/89/31 93/94/31
f 91/90/46 94/89/46 98/93/46
f 92/88/42 95/91/42 97/95/42
f 96/92/47 98/93/47 97/95/47
f 100/96/48 101/99/48 102/97/48
f 100/96/49 48/41/49 51/43/49
f 104/100/50 50/42/50 102/97/50
f 101/99/51 105/103/51 103/101/51
f 104/100/52 106/102/52 51/43/52
f 101/99/53 51/43/53 106/102/53
f 49/104/54 99/98/54 102/97/54
f 107/105/55 108/115/55 109/106/55
f 112/108/56 113/111/56 114/109/56
f 112/108/57 107/105/57 110/107/57
f 115/112/58 116/113/58 109/106/58
f 113/111/59 117/114/59 115/112/59
f 116/113/60 118/124/60 110/107/60
f 110/107/61 118/124/61 117/114/61
f 108/115/62 111/110/62 114/109/62
f 120/116/63 60/51/63 59/117/63
f 59/117/63 56/48/63 55/119/63
f 120/116/63 121/122/63 62/53/63
f 53/49/14 56/48/14 59/117/14
f 123/120/20 121/122/20 120/116/20
f 61/54/15 62/53/15 121/122/15
f 122/121/17 120/116/17 119/118/17
f 124/123/21 119/118/21 55/119/21
f 15/10/64 16/14/64 124/123/64
f 18/13/65 122/121/65 124/123/65
f 8/5/66 61/54/66 123/120/66
f 5/6/67 123/120/67 122/121/67
f 12/11/68 53/49/68 58/50/68
f 8/5/69 1/3/69 57/52/69
f 4/2/70 58/50/70 57/52/70
f 15/10/71 54/47/71 53/49/71
