# Blender v2.79 (sub 0) OBJ File: 'ninjaCourt.blend'
# www.blender.org
v 27.272831 -0.883972 8.993154
v 27.272831 0.078392 8.993154
v 27.272831 -0.883972 -16.461058
v 27.272831 0.078392 -16.461058
v -27.272831 -0.883972 8.993154
v -27.272831 0.078392 8.993154
v -27.272831 -0.883972 -16.461058
v -27.272831 0.078392 -16.461058
vt 0.333333 0.333333
vt 0.666667 0.333333
vt 0.666667 0.000000
vt 0.000000 0.220135
vt 0.333333 0.220134
vt 0.333333 0.241849
vt 0.000000 0.241849
vt 0.333333 0.000000
vt 0.333333 0.333333
vt 0.333333 0.666667
vt 0.666667 0.666667
vt 0.666667 0.333333
vt 1.000000 0.333333
vt 1.000000 0.000000
vt 0.333333 1.000000
vt 0.333333 0.259342
vt 0.000000 0.259342
vt 0.333333 0.000000
vt 0.000000 0.000000
vt 0.666667 0.333333
vt 0.666667 0.000000
vt 0.000000 1.000000
vn 1.0000 0.0000 0.0000
vn 0.0000 0.0000 -1.0000
vn -1.0000 0.0000 0.0000
vn 0.0000 0.0000 1.0000
vn 0.0000 -1.0000 0.0000
vn 0.0000 1.0000 0.0000
s off
f 2/1/1 1/2/1 3/3/1
f 4/4/2 3/5/2 7/6/2
f 8/7/3 7/6/3 5/8/3
f 6/9/4 5/10/4 1/11/4
f 7/12/5 3/13/5 1/14/5
f 4/15/6 8/16/6 6/17/6
f 2/1/1 3/3/1 4/18/1
f 4/4/2 7/6/2 8/7/2
f 8/7/3 5/8/3 6/19/3
f 6/9/4 1/11/4 2/20/4
f 7/12/5 1/14/5 5/21/5
f 4/15/6 6/17/6 2/22/6
