# Blender v2.79 (sub 0) OBJ File: 'courtExampleScene.blend'
# www.blender.org
v 27.433826 0.001256 14.910402
v -27.433882 -1.027169 14.910398
v 27.433876 -1.027169 14.910398
v -27.433912 0.001256 14.910398
v 27.433870 0.001263 -15.736930
v -27.433878 0.001263 -15.736934
vt 0.022402 -0.015911
vt 0.003664 0.983935
vt 0.003662 -0.015911
vt 0.022403 0.983936
vt 0.580885 0.983935
vt 0.580884 -0.015912
vn 0.0000 -0.0000 1.0000
vn -0.0000 1.0000 0.0000
s off
f 1/1/1 2/2/1 3/3/1
f 1/1/1 4/4/1 2/2/1
f 6/5/2 1/1/2 5/6/2
f 6/5/2 4/4/2 1/1/2
