# Blender v2.79 (sub 0) OBJ File: 'courtExampleScene.blend'
# www.blender.org
v -7.127409 17.830751 -18.473923
v -5.433277 13.469103 -23.621147
v -5.433277 13.469102 -18.473925
v 4.025420 13.469102 -17.578299
v -4.031380 17.830750 -16.495970
v -4.031380 13.469100 -17.578299
v 7.121451 17.830753 -18.473921
v 4.329263 17.820446 -16.152668
v 4.025420 17.830750 -16.495970
v -4.031380 17.830753 -25.599096
v 4.025420 13.469105 -24.516771
v -4.031378 13.469103 -24.516773
v 7.121451 17.830753 -23.621143
v 5.427318 13.469104 -18.473923
v 5.427318 13.469105 -23.621145
v -4.711649 18.025702 -15.727359
v 4.329264 18.114262 -16.152668
v 4.705688 18.025703 -15.727357
v -4.335222 17.820446 -16.152668
v -8.330498 18.025703 -24.055748
v -7.664774 18.114262 -18.279808
v -8.330498 18.025703 -18.039322
v -7.664774 17.820448 -23.815260
v -7.127409 17.830751 -23.621145
v -4.711649 18.025705 -26.367710
v 4.329264 18.114265 -25.942398
v -4.335224 18.114264 -25.942398
v 4.329265 17.820450 -25.942398
v 4.025420 17.830753 -25.599096
v -4.335224 18.114260 -16.152668
v -4.335222 17.820450 -25.942398
v -7.664774 18.114264 -23.815260
v 7.658813 17.820450 -23.815260
v 7.658813 18.114265 -18.279806
v 7.658813 17.820448 -18.279806
v -7.664774 17.820446 -18.279808
v 7.658814 18.114265 -23.815260
v 8.324540 18.025705 -18.039320
v 8.324538 18.025707 -24.055744
v 4.705688 18.025707 -26.367710
v -8.330500 18.808069 -21.764441
v -10.196762 18.740479 -22.356741
v -10.196760 19.400534 -22.356741
v -8.330500 19.477129 -24.055748
v -4.711649 19.477129 -24.055746
v -4.711649 19.477129 -26.367710
v -3.722595 13.242186 -24.250851
v 3.716640 13.034536 -24.250849
v -3.722595 13.034536 -24.250851
v -5.017036 13.242184 -23.423876
v -5.017036 13.034534 -18.671196
v -5.017036 13.242183 -18.671196
v -3.722595 13.034534 -17.844221
v -3.722597 13.242183 -17.844221
v 4.705688 19.477127 -15.727357
v 8.324538 19.477129 -18.039320
v 4.705688 19.477129 -18.039322
v 6.704842 19.477131 -19.054852
v 8.269634 22.533598 -20.269360
v 6.325385 19.477131 -19.054852
v 1.598022 19.477127 -16.611223
v -0.990639 22.533592 -14.838547
v -1.603983 19.477125 -16.611223
v 4.705688 19.477131 -26.367710
v 4.705688 19.477131 -24.055746
v 8.324539 19.477131 -24.055746
v -4.711649 19.477127 -18.039322
v -4.711649 19.477125 -15.727359
v -8.330500 19.477127 -18.039322
v 6.704842 19.477131 -23.040215
v 6.325385 19.477131 -23.040215
v 8.417820 22.533598 -21.825703
v 8.269634 22.533598 -21.825703
v 8.417820 22.533598 -20.269360
v -6.710804 19.477129 -23.040215
v -7.972181 22.533596 -21.825705
v -6.331347 19.477129 -23.040215
v -8.120365 22.533594 -20.269360
v -7.972181 22.533596 -20.269360
v -6.710806 19.477129 -19.054853
v -6.331347 19.477129 -19.054853
v -8.120365 22.533594 -21.825705
v 1.598021 19.477127 -17.155455
v -1.603983 19.477125 -17.155455
v -0.990639 22.533592 -15.174280
v 0.984676 22.533592 -14.838547
v 0.984676 22.533592 -15.174280
v 1.598022 19.477131 -25.483843
v -0.990637 22.533598 -27.256514
v 0.984676 22.533598 -27.256514
v -1.603983 19.477129 -25.483841
v -1.603983 19.477129 -24.939611
v 1.598022 19.477131 -24.939613
v 0.984676 22.533596 -26.920782
v -0.990637 22.533596 -26.920782
v -8.330500 18.808069 -20.330626
v -10.196762 18.740477 -19.738325
v -8.330500 18.523920 -20.330626
v -10.196760 19.400534 -19.738325
v -10.485281 19.008615 -21.987194
v -10.485281 19.008615 -20.107872
v -10.485285 19.257471 -21.987194
v -10.485285 19.257471 -20.107872
v -8.330500 18.523920 -21.764441
v 8.324538 18.808071 -20.330624
v 10.190801 18.740480 -19.738325
v 10.190801 19.400537 -19.738325
v 8.324538 18.808071 -21.764439
v 10.190800 18.740480 -22.356741
v 8.324537 18.523922 -21.764439
v 10.190801 19.400537 -22.356741
v 10.479323 19.008617 -20.107872
v 10.479321 19.008617 -21.987194
v 10.479323 19.257475 -21.987194
v 8.324538 18.523922 -20.330624
v 5.011078 13.034534 -18.671194
v -5.017036 13.034534 -23.423876
v 5.011079 13.034534 -23.423876
v 3.716638 13.242185 -17.844221
v 5.011077 13.242185 -18.671194
v 3.716638 13.034534 -17.844221
v 5.011078 13.242186 -23.423876
v 3.716638 13.242188 -24.250849
v 10.479323 19.257475 -20.107872
vt 0.412247 0.042666
vt 0.433934 0.233536
vt 0.337057 0.198055
vt 0.274513 0.432540
vt 0.052982 0.187925
vt 0.291740 0.239535
vt 0.076610 0.561821
vt 0.032318 0.460399
vt 0.044690 0.452233
vt 0.610594 0.264559
vt 0.456827 0.420085
vt 0.456866 0.264532
vt 0.514319 0.639880
vt 0.314433 0.483776
vt 0.430058 0.456386
vt 0.576868 0.157353
vt 0.452693 0.258970
vt 0.010453 0.164082
vt 0.015879 0.462533
vt 0.000321 0.472729
vt 0.042328 0.179219
vt 0.547453 0.049408
vt 0.416525 0.017142
vt 0.416893 0.000321
vt 0.531480 0.074280
vt 0.525541 0.085326
vt 0.636267 0.251424
vt 0.627483 0.425992
vt 0.627492 0.258692
vt 0.617214 0.425991
vt 0.610566 0.420123
vt 0.072076 0.058625
vt 0.024632 0.175599
vt 0.583797 0.150668
vt 0.539619 0.063826
vt 0.595754 0.142253
vt 0.519058 0.653707
vt 0.377329 0.699820
vt 0.373851 0.683341
vt 0.088833 0.065439
vt 0.412638 0.027176
vt 0.065230 0.577020
vt 0.602232 0.584775
vt 0.526760 0.667011
vt 0.375834 0.669663
vt 0.375036 0.716756
vt 0.533299 0.685169
vt 0.604566 0.133852
vt 0.611246 0.595729
vt 0.050658 0.581152
vt 0.037232 0.598840
vt 0.592908 0.576036
vt 0.098449 0.082355
vt 0.847748 0.332766
vt 0.889080 0.312070
vt 0.910795 0.333400
vt 0.000322 0.922339
vt 0.089372 0.922339
vt 0.089372 0.979230
vt 0.312937 0.195987
vt 0.289510 0.476940
vt 0.586174 0.567056
vt 0.447425 0.270502
vt 0.440118 0.414096
vt 0.440178 0.270511
vt 0.427592 0.243301
vt 0.334317 0.218108
vt 0.336683 0.211635
vt 0.324961 0.211444
vt 0.312510 0.251149
vt 0.302958 0.248415
vt 0.321106 0.717399
vt 0.410156 0.774290
vt 0.321106 0.774290
vt 0.643280 0.671400
vt 0.771857 0.720238
vt 0.636910 0.680180
vt 0.722821 0.968071
vt 0.788275 0.839763
vt 0.834915 0.968685
vt 0.321107 0.979229
vt 0.321106 0.922338
vt 0.410156 0.922338
vt 0.089372 0.774291
vt 0.089371 0.717400
vt 0.000321 0.774291
vt 0.370300 0.897348
vt 0.360963 0.897348
vt 0.370300 0.799280
vt 0.360962 0.799280
vt 0.773992 0.756417
vt 0.770010 0.754391
vt 0.643672 0.810203
vt 0.636910 0.801752
vt 0.794664 0.686670
vt 0.775465 0.718191
vt 0.410799 0.828661
vt 0.493282 0.721404
vt 0.417834 0.836992
vt 0.528147 0.729473
vt 0.525071 0.732689
vt 0.545061 0.867306
vt 0.534845 0.871094
vt 0.563182 0.717399
vt 0.634775 0.836389
vt 0.049515 0.897349
vt 0.040178 0.897349
vt 0.049515 0.799280
vt 0.040178 0.799280
vt 0.165843 0.739149
vt 0.244635 0.739149
vt 0.244635 0.752541
vt 0.165843 0.752541
vt 0.794621 0.832277
vt 0.758081 0.836068
vt 0.751851 0.829785
vt 0.848383 0.968222
vt 0.709447 0.968685
vt 0.707103 0.810846
vt 0.682710 0.133521
vt 0.758185 0.000321
vt 0.786439 0.038604
vt 0.244635 0.957480
vt 0.165843 0.957480
vt 0.165843 0.944088
vt 0.244635 0.944088
vt 0.786312 0.048129
vt 0.828860 0.067495
vt 0.819562 0.072480
vt 0.689623 0.147895
vt 0.788519 0.201900
vt 0.772826 0.201900
vt 0.834727 0.253357
vt 0.880985 0.266372
vt 0.831107 0.271200
vt 0.910856 0.202543
vt 0.885257 0.252047
vt 0.904252 0.307100
vt 0.893371 0.264876
vt 0.914826 0.214664
vt 0.893655 0.254103
vt 0.842049 0.317240
vt 0.494020 0.947733
vt 0.480321 0.904063
vt 0.496609 0.900196
vt 0.410799 0.942698
vt 0.436059 0.894138
vt 0.429186 0.950569
vt 0.537316 0.946648
vt 0.553572 0.881218
vt 0.483593 0.889247
vt 0.440932 0.882298
vt 0.417683 0.873767
vt 0.537846 0.872928
vt 0.477366 0.950569
vt 0.313080 0.460592
vt 0.423320 0.249498
vt 0.419575 0.437206
vt 0.287540 0.425057
vt 0.303375 0.464360
vt 0.296534 0.423426
vt 0.315546 0.470692
vt 0.423877 0.444550
vt 0.446049 0.418972
vt 0.453999 0.428463
vt 0.447378 0.414110
vt 0.636267 0.433260
vt 0.617232 0.258692
vt 0.060118 0.039342
vt 0.692445 0.590684
vt 0.492288 0.717399
vt 0.636910 0.937985
vt 0.636910 0.071464
vt 0.833845 0.204273
vt 0.914826 0.316804
vt 0.433155 0.871737
vt 0.495887 0.891165
vt 0.445508 0.266629
vn -0.9322 -0.3621 0.0000
vn 0.0000 -0.2408 0.9706
vn -0.0122 -0.9997 -0.0192
vn -0.0000 -0.2408 -0.9706
vn 0.9322 -0.3621 0.0000
vn -0.5270 -0.2047 -0.8249
vn 0.0000 -0.9790 -0.2038
vn 0.0000 -0.9995 -0.0300
vn 0.0000 -0.9996 -0.0300
vn 0.1319 -0.9913 0.0000
vn 0.0192 -0.9998 0.0000
vn 0.0000 -0.9790 0.2039
vn 0.0000 -0.9790 0.2038
vn 0.0000 -0.9996 0.0300
vn 0.0000 -0.9995 0.0300
vn 0.0839 -0.9878 -0.1314
vn -0.5384 -0.0000 -0.8427
vn -0.0000 0.0000 1.0000
vn -0.0000 0.0000 -1.0000
vn 1.0000 -0.0000 0.0000
vn -0.5384 -0.0000 0.8427
vn -1.0000 0.0000 0.0000
vn 0.5384 -0.0000 0.8427
vn 0.5384 -0.0000 -0.8427
vn -0.0192 -0.9998 -0.0000
vn -0.1319 -0.9913 -0.0000
vn 0.0839 -0.9878 0.1314
vn 0.0122 -0.9997 0.0192
vn -0.0839 -0.9878 0.1314
vn -0.0839 -0.9878 -0.1314
vn -0.0122 -0.9997 0.0192
vn 0.0122 -0.9997 -0.0192
vn 0.3025 -0.0000 -0.9531
vn -0.0000 1.0000 0.0000
vn -0.5270 -0.2047 0.8249
vn 0.5270 -0.2047 0.8249
vn 0.5270 -0.2047 -0.8249
vn 0.0000 0.3693 0.9293
vn 0.0000 -0.5017 0.8650
vn 0.0000 0.3693 -0.9293
vn -0.8438 0.5367 0.0000
vn 0.8723 -0.4889 0.0000
vn 0.8811 0.4730 0.0000
vn -0.9081 -0.4188 -0.0000
vn -0.9805 0.1967 0.0000
vn 0.9805 0.1968 -0.0000
vn 0.9805 0.1967 -0.0000
vn -0.0000 0.5439 -0.8391
vn 0.0000 -0.5017 -0.8650
vn 0.0000 0.5439 0.8391
vn 0.3025 0.0000 0.9531
vn 0.3026 0.9531 0.0000
vn -0.6808 -0.7325 0.0000
vn -0.7882 0.0000 0.6154
vn -0.7882 -0.0000 -0.6154
vn -0.4442 0.8959 0.0000
vn -0.1153 -0.9933 0.0000
vn -0.3025 0.0000 0.9531
vn -0.3025 0.0000 -0.9531
vn -0.3026 0.9531 0.0000
vn 0.6808 -0.7325 -0.0000
vn 0.7882 0.0000 -0.6154
vn 0.7882 0.0000 0.6154
vn 0.4442 0.8959 0.0000
vn 0.1153 -0.9933 0.0000
vn 0.0000 -1.0000 -0.0000
vn 0.2706 -0.8645 -0.4235
vn 0.4787 -0.8780 -0.0000
vn 0.0000 -0.7607 0.6491
vn 0.2706 -0.8645 0.4235
vn -0.2706 -0.8645 -0.4235
vn -0.2706 -0.8645 0.4235
vn -0.4787 -0.8780 0.0000
vn 0.0000 -0.7607 -0.6491
vn 0.0000 -0.9790 -0.2039
s 1
f 1/1/1 2/2/1 3/3/1
f 4/4/2 5/5/2 6/6/2
f 7/7/3 8/8/3 9/9/3
f 10/10/4 11/11/4 12/12/4
f 13/13/5 14/14/5 15/15/5
f 2/2/6 10/16/6 12/17/6
f 16/18/7 17/19/7 18/20/7
f 5/5/8 8/8/8 19/21/9
f 20/22/10 21/23/10 22/24/10
f 1/1/11 23/25/11 24/26/11
f 25/27/12 26/28/13 27/29/12
f 10/10/14 28/30/15 29/31/15
f 16/18/16 21/32/16 30/33/16
f 31/34/17 32/35/17 27/36/17
f 8/8/18 30/33/18 19/21/18
f 28/30/19 27/29/19 26/28/19
f 33/37/20 34/38/20 35/39/20
f 19/21/21 21/32/21 36/40/21
f 36/41/22 32/35/22 23/25/22
f 35/42/23 17/19/23 8/8/23
f 33/37/24 26/43/24 37/44/24
f 13/13/25 35/39/25 7/45/25
f 38/46/26 37/44/26 39/47/26
f 25/48/27 32/35/27 20/22/27
f 24/26/28 31/34/28 10/16/28
f 40/49/29 37/44/29 26/43/29
f 18/20/30 34/50/30 38/51/30
f 13/13/31 28/52/31 33/37/31
f 1/53/32 19/21/32 36/40/32
f 41/54/33 42/55/33 43/56/33
f 44/57/34 45/58/34 46/59/34
f 3/60/35 5/5/35 1/53/35
f 9/9/36 14/61/36 7/7/36
f 15/15/37 29/62/37 13/13/37
f 47/63/19 48/64/19 49/65/19
f 50/66/22 51/67/22 52/68/22
f 52/69/21 53/70/21 54/71/21
f 55/72/34 56/73/34 57/74/34
f 58/75/38 59/76/38 60/77/38
f 61/78/39 62/79/39 63/80/39
f 64/81/34 65/82/34 66/83/34
f 67/84/34 65/82/34 45/58/34
f 68/85/34 67/84/34 69/86/34
f 70/87/34 65/82/34 71/88/34
f 58/89/34 66/83/34 70/87/34
f 60/90/34 56/73/34 58/89/34
f 60/90/34 65/82/34 57/74/34
f 59/76/34 72/91/34 73/92/34
f 70/93/40 73/92/40 72/91/40
f 60/77/41 73/92/41 71/94/41
f 58/75/42 72/95/42 74/96/42
f 75/97/40 76/98/40 77/99/40
f 76/98/34 78/100/34 79/101/34
f 80/102/38 79/101/38 78/100/38
f 77/99/43 79/101/43 81/103/43
f 80/102/44 82/104/44 75/105/44
f 77/106/34 44/57/34 75/107/34
f 81/108/34 45/58/34 77/106/34
f 81/108/34 69/86/34 67/84/34
f 75/107/34 69/86/34 80/109/34
f 63/110/34 55/72/34 61/111/34
f 61/111/34 57/74/34 83/112/34
f 83/112/34 67/84/34 84/113/34
f 84/113/34 68/85/34 63/110/34
f 85/114/34 86/115/34 87/116/34
f 63/80/45 85/114/45 84/117/45
f 61/78/46 87/116/47 86/115/47
f 83/118/48 85/119/48 87/116/48
f 88/120/49 89/121/49 90/122/49
f 88/123/34 46/59/34 91/124/34
f 91/124/34 45/58/34 92/125/34
f 92/125/34 65/82/34 93/126/34
f 93/126/34 64/81/34 88/123/34
f 94/127/34 89/128/34 95/129/34
f 88/120/47 94/127/46 93/130/47
f 91/131/45 95/129/45 89/128/45
f 93/130/50 95/129/50 92/132/50
f 96/133/51 97/134/51 98/135/51
f 96/133/52 43/136/52 99/137/52
f 100/138/53 97/134/53 101/139/53
f 99/137/54 101/139/54 97/134/54
f 100/138/55 43/56/55 42/55/55
f 99/137/56 102/140/56 103/141/56
f 104/142/57 97/134/57 42/55/57
f 105/143/58 106/144/58 107/145/58
f 108/146/59 109/147/59 110/148/59
f 108/149/60 107/145/60 111/150/60
f 112/151/61 109/147/61 113/152/61
f 111/153/62 113/152/62 109/147/62
f 112/151/63 107/145/63 106/144/63
f 107/145/64 114/154/64 111/150/64
f 110/148/65 106/144/65 115/155/65
f 116/156/66 117/157/66 118/158/66
f 118/158/66 49/65/66 48/64/66
f 116/156/66 53/70/66 51/67/66
f 50/66/17 49/65/17 117/157/17
f 119/159/23 116/156/23 120/160/23
f 54/71/18 121/161/18 119/159/18
f 120/162/20 118/158/20 122/163/20
f 123/164/24 118/158/24 48/64/24
f 11/165/67 122/163/67 123/164/67
f 14/14/68 122/163/68 15/15/68
f 6/6/69 119/159/69 4/4/69
f 4/4/70 120/160/70 14/61/70
f 12/17/71 50/66/71 2/2/71
f 6/6/72 52/69/72 54/71/72
f 2/2/73 52/68/73 3/3/73
f 12/12/74 123/166/74 47/63/74
f 1/1/1 24/26/1 2/2/1
f 4/4/2 9/9/2 5/5/2
f 7/7/3 35/42/3 8/8/3
f 10/10/4 29/31/4 11/11/4
f 13/13/5 7/45/5 14/14/5
f 2/2/6 24/26/6 10/16/6
f 16/18/75 30/33/75 17/19/75
f 5/5/8 9/9/8 8/8/8
f 20/22/10 32/35/10 21/23/10
f 1/1/11 36/41/11 23/25/11
f 25/27/12 40/167/13 26/28/13
f 10/10/14 31/168/15 28/30/15
f 16/18/16 22/169/16 21/32/16
f 31/34/17 23/25/17 32/35/17
f 8/8/18 17/19/18 30/33/18
f 28/30/19 31/168/19 27/29/19
f 33/37/20 37/44/20 34/38/20
f 19/21/21 30/33/21 21/32/21
f 36/41/22 21/23/22 32/35/22
f 35/42/23 34/50/23 17/19/23
f 33/37/24 28/52/24 26/43/24
f 13/13/25 33/37/25 35/39/25
f 38/46/26 34/38/26 37/44/26
f 25/48/27 27/36/27 32/35/27
f 24/26/28 23/25/28 31/34/28
f 40/49/29 39/47/29 37/44/29
f 18/20/30 17/19/30 34/50/30
f 13/13/31 29/62/31 28/52/31
f 1/53/32 5/5/32 19/21/32
f 41/54/33 104/142/33 42/55/33
f 3/60/35 6/6/35 5/5/35
f 9/9/36 4/4/36 14/61/36
f 15/15/37 11/165/37 29/62/37
f 47/63/19 123/166/19 48/64/19
f 50/66/22 117/157/22 51/67/22
f 52/69/21 51/67/21 53/70/21
f 58/75/38 74/96/38 59/76/38
f 61/78/39 86/115/39 62/79/39
f 67/84/34 57/74/34 65/82/34
f 70/87/34 66/83/34 65/82/34
f 58/89/34 56/73/34 66/83/34
f 60/90/34 57/74/34 56/73/34
f 60/90/34 71/88/34 65/82/34
f 59/76/34 74/96/34 72/91/34
f 70/93/40 71/94/40 73/92/40
f 60/77/41 59/76/41 73/92/41
f 58/75/42 70/170/42 72/95/42
f 75/97/40 82/171/40 76/98/40
f 76/98/34 82/171/34 78/100/34
f 80/102/38 81/103/38 79/101/38
f 77/99/43 76/98/43 79/101/43
f 80/102/44 78/100/44 82/104/44
f 77/106/34 45/58/34 44/57/34
f 81/108/34 67/84/34 45/58/34
f 81/108/34 80/109/34 69/86/34
f 75/107/34 44/57/34 69/86/34
f 63/110/34 68/85/34 55/72/34
f 61/111/34 55/72/34 57/74/34
f 83/112/34 57/74/34 67/84/34
f 84/113/34 67/84/34 68/85/34
f 85/114/34 62/79/34 86/115/34
f 63/80/45 62/79/45 85/114/45
f 61/78/46 83/118/46 87/116/47
f 83/118/48 84/172/48 85/119/48
f 88/120/49 91/173/49 89/121/49
f 88/123/34 64/81/34 46/59/34
f 91/124/34 46/59/34 45/58/34
f 92/125/34 45/58/34 65/82/34
f 93/126/34 65/82/34 64/81/34
f 94/127/34 90/122/34 89/128/34
f 88/120/47 90/122/46 94/127/46
f 91/131/45 92/132/45 95/129/45
f 93/130/50 94/127/50 95/129/50
f 96/133/51 99/137/51 97/134/51
f 96/133/52 41/174/52 43/136/52
f 100/138/53 42/55/53 97/134/53
f 99/137/54 103/141/54 101/139/54
f 100/138/55 102/175/55 43/56/55
f 99/137/56 43/136/56 102/140/56
f 104/142/57 98/135/57 97/134/57
f 105/143/58 115/155/58 106/144/58
f 108/146/59 111/153/59 109/147/59
f 108/149/60 105/143/60 107/145/60
f 112/151/61 106/144/61 109/147/61
f 111/153/62 114/176/62 113/152/62
f 112/151/63 124/177/63 107/145/63
f 107/145/64 124/177/64 114/154/64
f 110/148/65 109/147/65 106/144/65
f 116/156/66 51/67/66 117/157/66
f 118/158/66 117/157/66 49/65/66
f 116/156/66 121/161/66 53/70/66
f 50/66/17 47/178/17 49/65/17
f 119/159/23 121/161/23 116/156/23
f 54/71/18 53/70/18 121/161/18
f 120/162/20 116/156/20 118/158/20
f 123/164/24 122/163/24 118/158/24
f 11/165/67 15/15/67 122/163/67
f 14/14/68 120/162/68 122/163/68
f 6/6/69 54/71/69 119/159/69
f 4/4/70 119/159/70 120/160/70
f 12/17/71 47/178/71 50/66/71
f 6/6/72 3/60/72 52/69/72
f 2/2/73 50/66/73 52/68/73
f 12/12/74 11/11/74 123/166/74
