# Blender v2.79 (sub 0) OBJ File: 'knightCourtNew.blend'
# www.blender.org
v -8.330497 18.025700 -24.330154
v -4.711647 19.477125 -26.642117
v -4.711647 18.025702 -26.642117
v 4.705688 18.025700 -16.001762
v -4.711648 19.477123 -16.001762
v -4.711648 18.025700 -16.001762
v 8.324539 18.025702 -24.330151
v 4.705689 19.477127 -26.642117
v 8.324540 19.477127 -24.330154
v -8.330499 19.477121 -18.313728
v -8.330498 18.025698 -18.313728
v 8.324540 18.025702 -18.313728
v 4.705688 19.477125 -16.001762
v 4.705689 18.025702 -26.642117
v -8.330499 18.523914 -22.038849
v -8.330498 18.523914 -20.605034
v -8.330499 18.808064 -20.605034
v -8.330499 18.808064 -22.038849
v -8.330499 19.477123 -24.330154
v 8.324538 18.523918 -22.038845
v 8.324539 18.808067 -22.038845
v 8.324539 18.808067 -20.605030
v 8.324539 18.523918 -20.605030
v 8.324539 19.477125 -18.313728
vt 0.000018 0.714599
vt 0.030227 0.803978
vt 0.000018 0.803978
vt 0.000018 0.303995
vt 0.030227 0.500000
vt 0.000018 0.500000
vt 0.000018 0.089396
vt 0.030226 0.000017
vt 0.030226 0.089396
vt 0.030227 0.589378
vt 0.000018 0.589378
vt 0.000018 0.214617
vt 0.030227 0.303995
vt 0.030226 0.999983
vt 0.000017 0.999983
vt 0.010387 0.666910
vt 0.010387 0.637068
vt 0.016301 0.637068
vt 0.016301 0.666910
vt 0.030227 0.714599
vt 0.010387 0.137085
vt 0.016301 0.137085
vt 0.016301 0.166927
vt 0.010387 0.166927
vt 0.030226 0.214617
vt 0.000017 0.000017
vn -0.5384 0.0000 -0.8427
vn 0.0000 0.0000 1.0000
vn 0.5384 -0.0000 -0.8427
vn -0.5384 -0.0000 0.8427
vn 0.5384 0.0000 0.8427
vn 0.0000 0.0000 -1.0000
vn -1.0000 0.0000 0.0000
vn 1.0000 0.0000 -0.0000
s 1
f 1/1/1 2/2/1 3/3/1
f 4/4/2 5/5/2 6/6/2
f 7/7/3 8/8/3 9/9/3
f 6/6/4 10/10/4 11/11/4
f 12/12/5 13/13/5 4/4/5
f 3/3/6 8/14/6 14/15/6
f 15/16/7 11/11/7 16/17/7
f 17/18/7 11/11/7 10/10/7
f 18/19/7 1/1/7 15/16/7
f 18/19/7 10/10/7 19/20/7
f 20/21/8 12/12/8 7/7/8
f 21/22/8 7/7/8 9/9/8
f 22/23/8 12/12/8 23/24/8
f 21/22/8 24/25/8 22/23/8
f 1/1/1 19/20/1 2/2/1
f 4/4/2 13/13/2 5/5/2
f 7/7/3 14/26/3 8/8/3
f 6/6/4 5/5/4 10/10/4
f 12/12/5 24/25/5 13/13/5
f 3/3/6 2/2/6 8/14/6
f 15/16/7 1/1/7 11/11/7
f 17/18/7 16/17/7 11/11/7
f 18/19/7 19/20/7 1/1/7
f 18/19/7 17/18/7 10/10/7
f 20/21/8 23/24/8 12/12/8
f 21/22/8 20/21/8 7/7/8
f 22/23/8 24/25/8 12/12/8
f 21/22/8 9/9/8 24/25/8
