# Blender v2.79 (sub 0) OBJ File: 'knightCourt.blend'
# www.blender.org
v -26.484932 -1.595992 15.189388
v -26.484932 0.045296 15.189388
v 26.632071 0.045296 15.189388
v 26.632071 -1.595992 15.189388
v -26.484932 0.045296 3.529023
v 26.632071 0.045296 3.529023
v -26.484932 0.045296 -16.060387
v 26.632071 0.045296 -16.060387
v -26.484932 0.045296 -3.860102
v 26.632071 0.045296 -3.860102
v 21.803251 -1.595992 15.189388
v 16.974434 -1.595992 15.189388
v 12.145614 -1.595992 15.189388
v 7.316796 -1.595992 15.189388
v 2.487977 -1.595992 15.189388
v -2.340841 -1.595992 15.189388
v -7.169660 -1.595992 15.189388
v -11.998478 -1.595992 15.189388
v -16.827297 -1.595992 15.189388
v -21.656115 -1.595992 15.189388
v -21.656115 0.045296 15.189388
v -16.827295 0.045296 15.189388
v -11.998476 0.045296 15.189388
v -7.169658 0.045296 15.189388
v -2.340839 0.045296 15.189388
v 2.487980 0.045296 15.189388
v 7.316798 0.045296 15.189388
v 12.145616 0.045296 15.189388
v 16.974436 0.045296 15.189388
v 21.803251 0.045296 15.189388
v 21.803251 0.045296 3.529023
v 16.974434 0.045296 3.529023
v 12.145614 0.045296 3.529023
v 7.316796 0.045296 3.529023
v 2.487977 0.045296 3.529023
v -2.340841 0.045296 3.529023
v -7.169660 0.045296 3.529023
v -11.998478 0.045296 3.529023
v -16.827297 0.045296 3.529023
v -21.656115 0.045296 3.529023
v 21.803251 0.045296 -16.060387
v 16.974434 0.045296 -16.060387
v 12.145614 0.045296 -16.060387
v 7.316796 0.045296 -16.060387
v 2.487977 0.045296 -16.060387
v -2.340841 0.045296 -16.060387
v -7.169660 0.045296 -16.060387
v -11.998478 0.045296 -16.060387
v -16.827297 0.045296 -16.060387
v -21.656115 0.045296 -16.060387
v 21.803251 0.045296 -3.860102
v 16.974434 0.045296 -3.860102
v 12.145614 0.045296 -3.860102
v 7.316796 0.045296 -3.860102
v 2.487977 0.045296 -3.860102
v -2.340841 0.045296 -3.860102
v -7.169660 0.045296 -3.860102
v -11.998478 0.045296 -3.860102
v -16.827297 0.045296 -3.860102
v -21.656115 0.045296 -3.860102
vt 0.096610 0.682547
vt 0.171216 0.682546
vt 0.171216 0.484933
vt 0.171215 0.413426
vt 0.096609 0.413426
vt 0.096610 0.807774
vt 0.171216 0.807774
vt 0.096610 1.014538
vt 0.171216 1.014538
vt 0.842668 1.014538
vt 0.917274 1.014538
vt 0.917274 0.807774
vt 0.768062 1.014538
vt 0.842668 0.807774
vt 0.693456 1.014538
vt 0.768062 0.807774
vt 0.618851 1.014538
vt 0.693456 0.807774
vt 0.544245 1.014538
vt 0.618851 0.807774
vt 0.469639 1.014538
vt 0.544245 0.807774
vt 0.395033 1.014538
vt 0.469639 0.807774
vt 0.320428 1.014538
vt 0.395033 0.807774
vt 0.245822 1.014538
vt 0.320428 0.807774
vt 0.245822 0.807774
vt 0.917274 0.682546
vt 0.842668 0.682546
vt 0.768062 0.682546
vt 0.693456 0.682546
vt 0.618851 0.682546
vt 0.544245 0.682546
vt 0.469639 0.682546
vt 0.395033 0.682546
vt 0.320427 0.682546
vt 0.245822 0.682546
vt 0.917274 0.484933
vt 0.917276 0.413426
vt 0.842669 0.413426
vt 0.842668 0.484933
vt 0.768063 0.413426
vt 0.768062 0.484933
vt 0.693457 0.413426
vt 0.693457 0.484933
vt 0.618852 0.413426
vt 0.618851 0.484933
vt 0.544245 0.413426
vt 0.544245 0.484933
vt 0.469639 0.413426
vt 0.469639 0.484933
vt 0.395033 0.413426
vt 0.395033 0.484933
vt 0.320428 0.413426
vt 0.320427 0.484933
vt 0.245821 0.413426
vt 0.245822 0.484933
vt 0.096610 0.484933
vn 0.0000 1.0000 0.0000
vn 0.0000 0.0000 1.0000
s off
f 6/1/1 31/2/1 30/3/1
f 30/3/2 11/4/2 4/5/2
f 10/6/1 51/7/1 31/2/1
f 8/8/1 41/9/1 51/7/1
f 50/10/1 7/11/1 9/12/1
f 49/13/1 50/10/1 60/14/1
f 48/15/1 49/13/1 59/16/1
f 47/17/1 48/15/1 58/18/1
f 46/19/1 47/17/1 57/20/1
f 45/21/1 46/19/1 56/22/1
f 44/23/1 45/21/1 55/24/1
f 43/25/1 44/23/1 54/26/1
f 42/27/1 43/25/1 53/28/1
f 41/9/1 42/27/1 52/29/1
f 60/14/1 9/12/1 5/30/1
f 59/16/1 60/14/1 40/31/1
f 58/18/1 59/16/1 39/32/1
f 57/20/1 58/18/1 38/33/1
f 56/22/1 57/20/1 37/34/1
f 55/24/1 56/22/1 36/35/1
f 54/26/1 55/24/1 35/36/1
f 53/28/1 54/26/1 34/37/1
f 52/29/1 53/28/1 33/38/1
f 51/7/1 52/29/1 32/39/1
f 2/40/2 1/41/2 20/42/2
f 21/43/2 20/42/2 19/44/2
f 22/45/2 19/44/2 18/46/2
f 23/47/2 18/46/2 17/48/2
f 24/49/2 17/48/2 16/50/2
f 25/51/2 16/50/2 15/52/2
f 26/53/2 15/52/2 14/54/2
f 27/55/2 14/54/2 13/56/2
f 28/57/2 13/56/2 12/58/2
f 29/59/2 12/58/2 11/4/2
f 40/31/1 5/30/1 2/40/1
f 39/32/1 40/31/1 21/43/1
f 38/33/1 39/32/1 22/45/1
f 37/34/1 38/33/1 23/47/1
f 36/35/1 37/34/1 24/49/1
f 35/36/1 36/35/1 25/51/1
f 34/37/1 35/36/1 26/53/1
f 33/38/1 34/37/1 27/55/1
f 32/39/1 33/38/1 28/57/1
f 31/2/1 32/39/1 29/59/1
f 6/1/1 30/3/1 3/60/1
f 30/3/2 4/5/2 3/60/2
f 10/6/1 31/2/1 6/1/1
f 8/8/1 51/7/1 10/6/1
f 50/10/1 9/12/1 60/14/1
f 49/13/1 60/14/1 59/16/1
f 48/15/1 59/16/1 58/18/1
f 47/17/1 58/18/1 57/20/1
f 46/19/1 57/20/1 56/22/1
f 45/21/1 56/22/1 55/24/1
f 44/23/1 55/24/1 54/26/1
f 43/25/1 54/26/1 53/28/1
f 42/27/1 53/28/1 52/29/1
f 41/9/1 52/29/1 51/7/1
f 60/14/1 5/30/1 40/31/1
f 59/16/1 40/31/1 39/32/1
f 58/18/1 39/32/1 38/33/1
f 57/20/1 38/33/1 37/34/1
f 56/22/1 37/34/1 36/35/1
f 55/24/1 36/35/1 35/36/1
f 54/26/1 35/36/1 34/37/1
f 53/28/1 34/37/1 33/38/1
f 52/29/1 33/38/1 32/39/1
f 51/7/1 32/39/1 31/2/1
f 2/40/2 20/42/2 21/43/2
f 21/43/2 19/44/2 22/45/2
f 22/45/2 18/46/2 23/47/2
f 23/47/2 17/48/2 24/49/2
f 24/49/2 16/50/2 25/51/2
f 25/51/2 15/52/2 26/53/2
f 26/53/2 14/54/2 27/55/2
f 27/55/2 13/56/2 28/57/2
f 28/57/2 12/58/2 29/59/2
f 29/59/2 11/4/2 30/3/2
f 40/31/1 2/40/1 21/43/1
f 39/32/1 21/43/1 22/45/1
f 38/33/1 22/45/1 23/47/1
f 37/34/1 23/47/1 24/49/1
f 36/35/1 24/49/1 25/51/1
f 35/36/1 25/51/1 26/53/1
f 34/37/1 26/53/1 27/55/1
f 33/38/1 27/55/1 28/57/1
f 32/39/1 28/57/1 29/59/1
f 31/2/1 29/59/1 30/3/1
