# Blender v2.79 (sub 0) OBJ File: 'ninjaCourt.blend'
# www.blender.org
v -98.734161 -26.107452 -28.819988
v -98.734161 53.584557 -28.819988
v -98.734161 -26.107452 -30.819988
v -98.734161 53.584557 -30.819988
v 91.210510 -26.107452 -28.819988
v 91.210510 53.584557 -28.819988
v 91.210510 -26.107452 -30.819988
v 91.210510 53.584557 -30.819988
v -37.652786 -26.107452 -30.819988
v -37.652786 53.584557 -30.819988
v -37.652786 -26.107452 -28.819988
v -37.652786 53.584557 -28.819988
v 35.100220 53.584557 -30.819988
v 35.100220 -26.107452 -28.819988
v 35.100220 -26.107452 -30.819988
v 35.100220 53.584557 -28.819988
v -98.734161 24.392563 -28.819988
v -98.734161 24.392563 -30.819988
v 91.210510 24.392563 -30.819988
v 91.210510 24.392563 -28.819988
v -37.652786 24.392563 -28.819988
v -37.652786 24.392563 -30.819988
v 35.100220 24.392563 -28.819988
v 35.100220 24.392563 -30.819988
v -98.734161 -2.884817 -30.819988
v 91.210510 -2.884817 -30.819988
v 91.210510 -2.884817 -28.819988
v -37.652786 -2.884817 -28.819988
v -37.652786 -2.884817 -30.819988
v 35.100220 -2.884817 -28.819988
v 35.100220 -2.884817 -30.819988
v -98.734161 -2.884817 -28.819988
vt 0.333333 0.333333
vt 0.500000 0.000000
vt 0.500000 0.333333
vt 0.000000 0.416667
vt 0.064439 0.333333
vt 0.064439 0.416667
vt 0.000000 0.333333
vt 0.166667 0.000000
vt 0.568723 0.666667
vt 0.140083 0.500000
vt 0.291964 0.612458
vt 0.666667 0.333333
vt 0.750000 0.000000
vt 0.750000 0.333333
vt 0.333333 1.000000
vt 0.000000 0.833333
vt 0.333333 0.833333
vt 0.000000 0.750000
vt 0.333333 0.750000
vt 0.833333 0.333333
vt 1.000000 0.000000
vt 1.000000 0.333333
vt 0.783043 0.666667
vt 0.855050 0.612458
vt 0.000000 0.666667
vt 0.064439 0.500000
vt 0.064439 0.666667
vt 0.997363 0.666667
vt 0.997363 0.500000
vt 0.000000 0.666667
vt 0.333333 0.666667
vt 0.833333 0.000000
vt 0.000000 0.500000
vt 0.096658 0.416667
vt 0.096658 0.500000
vt 0.855050 0.393515
vt 0.997363 0.416667
vt 0.096658 0.666667
vt 0.291964 0.393515
vt 0.140083 0.416667
vt 0.250000 0.000000
vt 0.096659 0.333333
vt 0.583333 0.000000
vt 0.583333 0.333333
vt 0.666667 0.000000
vt 0.666667 0.333333
vt 0.128878 0.333333
vt 0.128878 0.416667
vt 0.333333 0.000000
vt 0.140083 0.333333
vt 0.568723 0.333333
vt 0.783043 0.333333
vt 0.128878 0.500000
vt 0.128878 0.666667
vt 0.997363 0.333333
vt 0.333333 0.000000
vt 0.000000 0.000000
vt 0.140083 0.666667
vt 0.666667 0.000000
vt 0.000000 1.000000
vn -1.0000 0.0000 0.0000
vn 0.0000 0.0000 -1.0000
vn 1.0000 0.0000 0.0000
vn 0.0000 0.0000 1.0000
vn 0.0000 -1.0000 0.0000
vn 0.0000 1.0000 0.0000
s off
f 2/1/1 18/2/1 17/3/1
f 13/4/2 19/5/2 24/6/2
f 8/7/3 20/8/3 19/5/3
f 12/9/4 17/10/4 21/11/4
f 7/12/5 14/13/5 15/14/5
f 4/15/6 12/16/6 10/17/6
f 10/17/6 16/18/6 13/19/6
f 9/20/5 1/21/5 3/22/5
f 16/23/4 21/11/4 23/24/4
f 4/25/2 22/26/2 18/27/2
f 6/28/4 23/24/4 20/29/4
f 13/19/6 6/30/6 8/31/6
f 15/14/5 11/32/5 9/20/5
f 10/33/2 24/6/2 22/26/2
f 22/26/2 31/34/2 29/35/2
f 20/29/4 30/36/4 27/37/4
f 18/27/2 29/35/2 25/38/2
f 23/24/4 28/39/4 30/36/4
f 21/11/4 32/40/4 28/39/4
f 19/5/3 27/41/3 26/42/3
f 24/6/2 26/42/2 31/34/2
f 17/3/1 25/43/1 32/44/1
f 32/44/1 3/45/1 1/46/1
f 31/34/2 7/47/2 15/48/2
f 26/42/3 5/49/3 7/47/3
f 28/39/4 1/50/4 11/51/4
f 30/36/4 11/51/4 14/52/4
f 25/38/2 9/53/2 3/54/2
f 27/37/4 14/52/4 5/55/4
f 29/35/2 15/48/2 9/53/2
f 2/1/1 4/56/1 18/2/1
f 13/4/2 8/7/2 19/5/2
f 8/7/3 6/57/3 20/8/3
f 12/9/4 2/58/4 17/10/4
f 7/12/5 5/59/5 14/13/5
f 4/15/6 2/60/6 12/16/6
f 10/17/6 12/16/6 16/18/6
f 9/20/5 11/32/5 1/21/5
f 16/23/4 12/9/4 21/11/4
f 4/25/2 10/33/2 22/26/2
f 6/28/4 16/23/4 23/24/4
f 13/19/6 16/18/6 6/30/6
f 15/14/5 14/13/5 11/32/5
f 10/33/2 13/4/2 24/6/2
f 22/26/2 24/6/2 31/34/2
f 20/29/4 23/24/4 30/36/4
f 18/27/2 22/26/2 29/35/2
f 23/24/4 21/11/4 28/39/4
f 21/11/4 17/10/4 32/40/4
f 19/5/3 20/8/3 27/41/3
f 24/6/2 19/5/2 26/42/2
f 17/3/1 18/2/1 25/43/1
f 32/44/1 25/43/1 3/45/1
f 31/34/2 26/42/2 7/47/2
f 26/42/3 27/41/3 5/49/3
f 28/39/4 32/40/4 1/50/4
f 30/36/4 28/39/4 11/51/4
f 25/38/2 29/35/2 9/53/2
f 27/37/4 30/36/4 14/52/4
f 29/35/2 31/34/2 15/48/2
